<?xml version="1.0" encoding="UTF-8" standalone="no"?>
<!-- Created with Inkscape (http://www.inkscape.org/) -->

<svg
   xmlns:dc="http://purl.org/dc/elements/1.1/"
   xmlns:cc="http://creativecommons.org/ns#"
   xmlns:rdf="http://www.w3.org/1999/02/22-rdf-syntax-ns#"
   xmlns:svg="http://www.w3.org/2000/svg"
   xmlns="http://www.w3.org/2000/svg"
   xmlns:xlink="http://www.w3.org/1999/xlink"
   xmlns:sodipodi="http://sodipodi.sourceforge.net/DTD/sodipodi-0.dtd"
   xmlns:inkscape="http://www.inkscape.org/namespaces/inkscape"
   width="744.09448819"
   height="1052.3622047"
   id="svg2"
   version="1.1"
   inkscape:version="0.48.2 r9819"
   sodipodi:docname="RocketUML.svg">
  <defs
     id="defs4" />
  <sodipodi:namedview
     id="base"
     pagecolor="#ffffff"
     bordercolor="#666666"
     borderopacity="1.0"
     inkscape:pageopacity="0.0"
     inkscape:pageshadow="2"
     inkscape:zoom="115.85237"
     inkscape:cx="308.13825"
     inkscape:cy="881.479"
     inkscape:document-units="px"
     inkscape:current-layer="layer2"
     showgrid="false"
     inkscape:window-width="1050"
     inkscape:window-height="914"
     inkscape:window-x="0"
     inkscape:window-y="0"
     inkscape:window-maximized="0" />
  <metadata
     id="metadata7">
    <rdf:RDF>
      <cc:Work
         rdf:about="">
        <dc:format>image/svg+xml</dc:format>
        <dc:type
           rdf:resource="http://purl.org/dc/dcmitype/StillImage" />
        <dc:title />
      </cc:Work>
    </rdf:RDF>
  </metadata>
  <g
     inkscape:groupmode="layer"
     id="layer2"
     inkscape:label="Background"
     style="display:inline">
    <path
       sodipodi:type="arc"
       style="fill:#dbdee3;fill-opacity:1;stroke:none"
       id="path2985"
       sodipodi:cx="364.28571"
       sodipodi:cy="616.64789"
       sodipodi:rx="307.14285"
       sodipodi:ry="307.14285"
       d="m 671.42856,616.64789 a 307.14285,307.14285 0 1 1 -614.285707,0 307.14285,307.14285 0 1 1 614.285707,0 z"
       transform="matrix(1.7116279,0,0,1.7116279,-281.48268,-516.54097)" />
    <text
       xml:space="preserve"
       style="font-size:6px;font-style:normal;font-weight:normal;line-height:125%;letter-spacing:0px;word-spacing:0px;fill:#000000;fill-opacity:1;stroke:none;font-family:Sans"
       x="300.87891"
       y="157.53796"
       id="text3012"
       sodipodi:linespacing="125%"><tspan
         sodipodi:role="line"
         id="tspan3014"
         x="300.87891"
         y="157.53796" /></text>
  </g>
  <g
     inkscape:label="Layer 1"
     inkscape:groupmode="layer"
     id="layer1">
    <path
       style="fill:#999999;fill-opacity:1;stroke:none"
       d="M 334.65215,33.935722 C 259.6297,33.226279 200.29011,165.88521 152.42117,278.07362 l 360.53904,2.29452 C 466.75509,167.52531 409.42987,34.642859 334.65215,33.935722 z"
       id="path3137"
       inkscape:connector-curvature="0" />
    <path
       style="fill:#ffff00;fill-opacity:1;stroke:none"
       d="m 256.89285,926.65178 -50.25,70 90.09375,-35.5 0.5625,96.84372 52.03125,-81.65622 57.375,78.03122 -5.90625,-96.68742 92.28125,29.4062 -49.8125,-60.4375 -186.375,0 z"
       id="path3126"
       inkscape:connector-curvature="0" />
    <flowRoot
       xml:space="preserve"
       id="flowRoot2991"
       style="fill:black;stroke:none;stroke-opacity:1;stroke-width:1px;stroke-linejoin:miter;stroke-linecap:butt;fill-opacity:1;font-family:Sans;font-style:normal;font-weight:normal;font-size:64px;line-height:125%;letter-spacing:0px;word-spacing:0px"><flowRegion
         id="flowRegion2993"><rect
           id="rect2995"
           width="88.571426"
           height="92.85714"
           x="-207.14285"
           y="532.36218" /></flowRegion><flowPara
         id="flowPara2997" /></flowRoot>    <text
       xml:space="preserve"
       style="font-size:822.50415039px;font-style:normal;font-weight:normal;line-height:125%;letter-spacing:0px;word-spacing:0px;fill:#4d4d4d;fill-opacity:1;stroke:none;font-family:Sans"
       x="71.489426"
       y="886.74323"
       id="text3015"
       sodipodi:linespacing="125%"><tspan
         sodipodi:role="line"
         id="tspan3017"
         x="71.489426"
         y="886.74323">L</tspan></text>
    <text
       xml:space="preserve"
       style="font-size:360.53616333px;font-style:normal;font-variant:normal;font-weight:normal;font-stretch:normal;line-height:125%;letter-spacing:0px;word-spacing:0px;fill:#666666;fill-opacity:1;stroke:none;font-family:Seravek;-inkscape-font-specification:Seravek"
       x="221.14613"
       y="804.14093"
       id="text3007"
       sodipodi:linespacing="125%"><tspan
         sodipodi:role="line"
         id="tspan3009"
         x="221.14613"
         y="804.14093">M</tspan></text>
    <text
       xml:space="preserve"
       style="font-size:406.81741333px;font-style:normal;font-variant:normal;font-weight:normal;font-stretch:normal;line-height:125%;letter-spacing:0px;word-spacing:0px;fill:#999999;fill-opacity:1;stroke:none;font-family:Seravek;-inkscape-font-specification:Seravek"
       x="230.70944"
       y="566.39282"
       id="text3011"
       sodipodi:linespacing="125%"><tspan
         sodipodi:role="line"
         id="tspan3013"
         x="230.70944"
         y="566.39282">U</tspan></text>
    <path
       sodipodi:nodetypes="ccccc"
       inkscape:connector-curvature="0"
       id="path3129"
       d="m 234.2857,885.21934 224.28573,0 64.28571,52.85719 -342.85715,0 z"
       style="fill:#1c1c24;fill-opacity:1;stroke:none" />
    <path
       style="fill:#808080;fill-opacity:1;stroke:none"
       d="m 327.61289,107.50475 c -10.31193,0.0177 -20.60871,0.0242 -30.92051,0.0602 -7.07568,-0.0181 -10.9724,6.76948 -13.88771,16.43274 -5.41208,20.53655 -12.7671,41.057 -12.7381,62.24248 0.33229,8.95862 6.91836,16.61696 14.10902,16.4068 10.92199,-0.10108 46.5823,0.30547 57.48022,-0.0307 8.30034,0.072 11.25782,-7.22417 10.95862,-16.05313 -0.01,-20.75969 -5.6233,-41.07432 -10.53709,-63.09408 -2.02411,-9.42208 -7.30093,-16.40199 -14.46441,-15.96438 z"
       id="path3160"
       inkscape:connector-curvature="0"
       sodipodi:nodetypes="cccccccccc" />
    <path
       sodipodi:type="arc"
       style="fill:#4d4d4d;fill-opacity:1;stroke:none"
       id="path3173"
       sodipodi:cx="312.64221"
       sodipodi:cy="127.56753"
       sodipodi:rx="9.5964489"
       sodipodi:ry="9.5964489"
       d="m 322.23866,127.56753 a 9.5964489,9.5964489 0 1 1 -19.1929,0 9.5964489,9.5964489 0 1 1 19.1929,0 z"
       transform="translate(0,10)" />
    <path
       inkscape:connector-curvature="0"
       style="opacity:0.61119995;fill:#000000;fill-rule:evenodd;stroke:#000000;stroke-width:0.13708705px;stroke-linecap:butt;stroke-linejoin:miter;stroke-opacity:1;display:inline"
       d="m 308.10913,161.25394 c -0.8283,0.44007 -0.3495,1.16342 -2.01261,2.07418 -0.20265,0.11098 0.69564,0.40423 0.67226,0.57936 -0.40754,3.05126 -2.74879,1.84092 -2.4193,2.3926 0.61978,1.03769 2.26762,0.37193 2.31555,0.4511 0.10361,0.17116 -1.22048,0.40423 -1.08307,0.59263 0.24141,0.331 1.28597,0.11118 1.34451,0.2742 0.0824,0.22945 -1.76873,0.16054 -1.5935,0.40245 0.69588,0.96071 1.89756,0.24825 1.81342,0.57493 -0.69632,2.70369 -1.94287,6.05926 -2.12879,6.09872 -0.36433,0.0773 -0.6917,0.1218 -0.9586,0.25651 -0.48175,0.24314 -0.76676,0.61395 -0.72205,0.80932 0.0216,0.0944 0.81328,-0.0844 0.8424,-0.0132 0.0514,0.12563 0.0839,0.24951 0.16183,0.2919 0.0712,0.0387 0.13983,-0.25505 0.31124,-0.25209 0.26476,0.005 0.6782,0.17857 0.84654,-0.10614 1.77029,-2.99431 2.89,-6.52805 3.05834,-6.52328 0.3859,0.0106 0.71042,1.67459 0.59342,2.03438 -0.51329,1.5783 -0.62934,2.59997 -0.46893,3.16655 0.26948,0.42877 0.7857,1.66976 2.03752,1.48156 1.0624,-0.15973 4.39837,-1.53468 4.72238,-1.38868 1.62261,0.73113 3.5515,0.52059 4.83528,0.4807 0.31605,-0.01 0.59298,0.18147 0.81664,0.17826 0.22255,-0.003 0.19614,-0.25176 0.34028,-0.38919 1.06921,-1.01943 1.24009,-0.8851 1.07893,-1.51252 -0.0517,-0.20124 -0.95607,0.62786 -1.95453,0.84472 -0.99092,0.21521 -2.08343,-0.10442 -2.17445,-0.26978 -1.39484,-2.53411 -2.15327,-4.2247 -2.80521,-4.49775 -0.29657,-0.12421 -3.18273,1.20209 -4.50244,2.19359 -0.221,0.16604 -0.68732,-0.87671 -0.43573,-1.63192 0.14581,-0.43769 0.98477,-1.15331 1.06233,-1.57444 0.008,-0.0793 0.0151,-0.13443 0.0119,-0.20586 0,-0.005 0.0296,-0.0154 0.0296,-0.0353 -1.2e-4,-0.0183 -0.0358,-0.0375 -0.0362,-0.0431 -0.075,-1.21063 -1.67614,-1.31279 -1.93916,-2.51526 0.0166,-0.0979 0.70637,0.21109 0.70961,-0.004 0.003,-0.17794 0.4412,-0.86998 0.41081,-1.05257 -0.024,-0.14403 -0.002,-0.26495 -0.0249,-0.4113 -0.0115,-0.0737 -0.0679,-0.18283 -0.0788,-0.25651 -0.0144,-0.0965 0.139,-0.16944 0.12449,-0.26535 -0.0349,-0.23042 0.0187,-0.45638 -0.0207,-0.67666 -0.0135,-0.0751 -0.0816,-0.1169 -0.0954,-0.19016 -0.0181,-0.0957 0.0819,-0.16468 0.10374,-0.25651 0.0479,-0.20117 0.0538,-0.41634 -0.004,-0.59263 -0.77328,-1.27766 -1.74731,-1.04514 -2.78447,-0.51302 z m 7.07528,9.66772 c 0.0124,0.003 0.0202,0.0121 0.0249,0.0265 0.36466,1.11867 1.4996,2.28299 1.34451,2.37492 -1.7338,-0.96753 -3.10399,-0.35983 -3.10399,-0.63242 0.54768,-0.6363 1.54975,-1.81407 1.73458,-1.76903 z"
       id="path2827"
       sodipodi:nodetypes="cssssssssssssssssscssssssssssscssscsssssssscccsccc" />
    <path
       sodipodi:type="inkscape:offset"
       inkscape:radius="-10"
       inkscape:original="M 256.90625 926.65625 L 206.65625 996.65625 L 296.75 961.15625 L 297.3125 1058 L 349.34375 976.34375 L 406.71875 1054.375 L 400.8125 957.6875 L 493.09375 987.09375 L 443.28125 926.65625 L 256.90625 926.65625 z "
       xlink:href="#path3126"
       style="fill:#ff0000;fill-opacity:1;stroke:none"
       id="path3007"
       inkscape:href="#path3126"
       d="m 262.0625,936.65625 -27.46875,38.25 58.5,-23.0625 a 10.001,10.001 0 0 1 13.65625,9.25 L 307.125,1024 340.90625,970.96875 a 10.001,10.001 0 0 1 16.5,-0.5625 l 37.28125,50.68755 -3.84375,-62.7813 a 10.001,10.001 0 0 1 13,-10.15625 l 59.9375,19.09375 -25.21875,-30.59375 -176.5,0 z" />
    <text
       xml:space="preserve"
       style="font-size:1.2808162px;font-style:normal;font-variant:normal;font-weight:bold;font-stretch:normal;line-height:125%;letter-spacing:0px;word-spacing:0px;fill:#b3b3b3;fill-opacity:1;stroke:none;font-family:Edwardian Script ITC;-inkscape-font-specification:Edwardian Script ITC Bold"
       x="-60.964909"
       y="346.7048"
       id="text3016"
       sodipodi:linespacing="125%"
       transform="matrix(0.33208428,-0.94324972,0.94324972,0.33208428,0,0)"><tspan
         sodipodi:role="line"
         id="tspan3018"
         x="-60.964909"
         y="346.7048">Barbara</tspan></text>
  </g>
</svg>
